<svg width="111" height="40" viewBox="0 0 111 40" fill="none" xmlns="http://www.w3.org/2000/svg">
<path d="M47.8597 35V7.04895H59.051C61.1073 7.04895 62.8224 7.35375 64.1963 7.96336C65.5702 8.57297 66.6029 9.41915 67.2944 10.5019C67.9859 11.5755 68.3316 12.8129 68.3316 14.2141C68.3316 15.306 68.1132 16.2659 67.6765 17.0939C67.2398 17.9127 66.6393 18.586 65.875 19.1138C65.1198 19.6324 64.2554 20.0009 63.2819 20.2192V20.4922C64.3464 20.5377 65.3427 20.838 66.2708 21.393C67.2079 21.948 67.9677 22.7259 68.55 23.7268C69.1323 24.7185 69.4235 25.9013 69.4235 27.2752C69.4235 28.7583 69.055 30.0822 68.318 31.2468C67.5901 32.4023 66.5119 33.3167 65.0834 33.99C63.6549 34.6633 61.8943 35 59.8016 35H47.8597ZM53.7692 30.1686H58.587C60.2338 30.1686 61.4348 29.8547 62.19 29.2269C62.9452 28.59 63.3228 27.7438 63.3228 26.6884C63.3228 25.915 63.1363 25.2326 62.7632 24.6412C62.3902 24.0498 61.8579 23.5857 61.1664 23.2491C60.484 22.9124 59.6697 22.7441 58.7234 22.7441H53.7692V30.1686ZM53.7692 18.7453H58.1502C58.96 18.7453 59.6788 18.6042 60.3066 18.3222C60.9435 18.031 61.4439 17.6216 61.8079 17.0939C62.1809 16.5661 62.3675 15.9338 62.3675 15.1968C62.3675 14.1868 62.0081 13.3725 61.2893 12.7538C60.5796 12.1351 59.5696 11.8257 58.2594 11.8257H53.7692V18.7453ZM71.238 35V14.0367H77.052V35H71.238ZM74.1586 11.3344C73.2942 11.3344 72.5527 11.0478 71.934 10.4746C71.3244 9.89227 71.0196 9.19623 71.0196 8.38645C71.0196 7.58577 71.3244 6.89882 71.934 6.3256C72.5527 5.74329 73.2942 5.45213 74.1586 5.45213C75.023 5.45213 75.76 5.74329 76.3696 6.3256C76.9883 6.89882 77.2977 7.58577 77.2977 8.38645C77.2977 9.19623 76.9883 9.89227 76.3696 10.4746C75.76 11.0478 75.023 11.3344 74.1586 11.3344ZM87.5125 35.3412C85.9202 35.3412 84.4781 34.9318 83.1861 34.1129C81.9032 33.2849 80.8841 32.0702 80.1289 30.4689C79.3828 28.8584 79.0098 26.884 79.0098 24.5457C79.0098 22.1436 79.3965 20.1465 80.1699 18.5542C80.9433 16.9528 81.9714 15.7564 83.2543 14.9648C84.5463 14.1641 85.9612 13.7638 87.4988 13.7638C88.6726 13.7638 89.6507 13.9639 90.4331 14.3643C91.2247 14.7555 91.8616 15.2468 92.3439 15.8382C92.8352 16.4206 93.2082 16.9938 93.463 17.5579H93.6404V7.04895H99.4408V35H93.7087V31.6426H93.463C93.19 32.2249 92.8033 32.8027 92.3029 33.3759C91.8116 33.94 91.1701 34.4086 90.3786 34.7816C89.5961 35.1547 88.6407 35.3412 87.5125 35.3412ZM89.355 30.7145C90.2921 30.7145 91.0837 30.4598 91.7297 29.9502C92.3848 29.4316 92.8852 28.7083 93.231 27.7802C93.5858 26.8522 93.7632 25.7649 93.7632 24.5184C93.7632 23.2718 93.5904 22.1891 93.2446 21.2701C92.8989 20.3512 92.3985 19.6415 91.7433 19.1411C91.0882 18.6406 90.2921 18.3904 89.355 18.3904C88.3996 18.3904 87.5944 18.6497 86.9393 19.1683C86.2842 19.687 85.7883 20.4058 85.4516 21.3247C85.115 22.2437 84.9467 23.3082 84.9467 24.5184C84.9467 25.7376 85.115 26.8158 85.4516 27.7529C85.7974 28.681 86.2933 29.4089 86.9393 29.9366C87.5944 30.4552 88.3996 30.7145 89.355 30.7145ZM102.299 35V14.0367H108.113V35H102.299ZM105.22 11.3344C104.356 11.3344 103.614 11.0478 102.995 10.4746C102.386 9.89227 102.081 9.19623 102.081 8.38645C102.081 7.58577 102.386 6.89882 102.995 6.3256C103.614 5.74329 104.356 5.45213 105.22 5.45213C106.084 5.45213 106.821 5.74329 107.431 6.3256C108.05 6.89882 108.359 7.58577 108.359 8.38645C108.359 9.19623 108.05 9.89227 107.431 10.4746C106.821 11.0478 106.084 11.3344 105.22 11.3344Z" fill="black"/>
<path d="M32.3265 36.6143C32.3265 37.7936 33.2826 38.7497 34.4619 38.7497C35.6413 38.7497 36.5973 37.7936 36.5973 36.6143H32.3265ZM36.5973 12.5819V10.4464H32.3265V12.5819H36.5973ZM36.5973 36.6143L36.5973 12.5819H32.3265L32.3265 36.6143H36.5973Z" fill="#EB3789"/>
<path d="M34.4526 36.6006L3.1815 36.6006" stroke="#EB3789" stroke-width="4.27082" stroke-linecap="round"/>
<path d="M3 36.6143L3 5.52397" stroke="#EB3789" stroke-width="4.27082" stroke-linecap="round"/>
<path d="M33.4395 7.60514H35.5749V3.33432H33.4395V7.60514ZM3.07267 3.33432C1.89332 3.33432 0.937263 4.29037 0.937263 5.46973C0.937263 6.64908 1.89332 7.60514 3.07267 7.60514V3.33432ZM33.4395 3.33432L3.07267 3.33432V7.60514L33.4395 7.60514V3.33432Z" fill="#EB3789"/>
<path d="M38.2168 5.48828L18.4484 27.4501" stroke="#EB3789" stroke-width="4.27082" stroke-linecap="round"/>
<path d="M38.9048 9.2168L30.001 19.1089" stroke="white" stroke-width="1.73728" stroke-linecap="round"/>
<path d="M18.4551 27.457L10.6373 19.965" stroke="#EB3789" stroke-width="4.27082" stroke-linecap="round"/>
<path d="M38.2168 1L29.313 10.8921" stroke="white" stroke-width="1.73728" stroke-linecap="round"/>
</svg>
