<svg width="601" height="265" viewBox="0 0 601 265" fill="none" xmlns="http://www.w3.org/2000/svg">
<path d="M119.596 199.24C160.492 182.505 186.187 150.688 176.988 128.174C167.788 105.66 127.177 100.975 86.2811 117.709C45.385 134.444 19.69 166.261 28.8897 188.775C38.0894 211.289 78.7001 215.974 119.596 199.24Z" stroke="url(#paint0_linear_3602_7531)" stroke-width="19" stroke-miterlimit="10" stroke-linecap="round"/>
<path d="M265.05 210V182.07H296.13C302.01 182.07 306.63 180.46 309.99 177.24C313.49 173.88 315.24 169.54 315.24 164.22C315.24 160.72 314.47 157.64 312.93 154.98C311.39 152.18 309.15 150.08 306.21 148.68C303.41 147.14 300.05 146.37 296.13 146.37H265.05V119.28H293.82C298.72 119.28 302.71 118.09 305.79 115.71C309.01 113.19 310.62 109.34 310.62 104.16C310.62 98.98 309.01 95.2 305.79 92.82C302.71 90.3 298.72 89.04 293.82 89.04H265.05V61.11H302.85C312.09 61.11 320.07 62.86 326.79 66.36C333.65 69.86 338.9 74.55 342.54 80.43C346.18 86.31 348 92.96 348 100.38C348 110.32 344.57 118.58 337.71 125.16C330.99 131.6 321.19 135.59 308.31 137.13V124.53C322.59 126.21 333.51 130.83 341.07 138.39C348.63 145.81 352.41 155.19 352.41 166.53C352.41 174.93 350.31 182.42 346.11 189C341.91 195.44 335.96 200.55 328.26 204.33C320.7 208.11 311.74 210 301.38 210H265.05ZM235.23 210V61.11H272.19V210H235.23ZM369.082 210V107.31H405.832V210H369.082ZM387.352 95.34C381.892 95.34 377.342 93.52 373.702 89.88C370.062 86.1 368.242 81.41 368.242 75.81C368.242 70.35 370.062 65.73 373.702 61.95C377.342 58.17 381.892 56.28 387.352 56.28C393.092 56.28 397.712 58.17 401.212 61.95C404.852 65.73 406.672 70.35 406.672 75.81C406.672 81.41 404.852 86.1 401.212 89.88C397.712 93.52 393.092 95.34 387.352 95.34ZM471.224 212.1C461.284 212.1 452.534 209.79 444.974 205.17C437.414 200.55 431.464 194.25 427.124 186.27C422.924 178.15 420.824 168.98 420.824 158.76C420.824 148.4 422.924 139.16 427.124 131.04C431.464 122.92 437.344 116.62 444.764 112.14C452.324 107.52 461.144 105.21 471.224 105.21C477.664 105.21 483.684 106.4 489.284 108.78C494.884 111.02 499.574 114.24 503.354 118.44C507.134 122.64 509.374 127.4 510.074 132.72V182.91C509.374 188.23 507.134 193.13 503.354 197.61C499.574 202.09 494.884 205.66 489.284 208.32C483.684 210.84 477.664 212.1 471.224 212.1ZM477.734 179.55C481.794 179.55 485.294 178.71 488.234 177.03C491.174 175.21 493.484 172.76 495.164 169.68C496.984 166.46 497.894 162.75 497.894 158.55C497.894 154.49 497.054 150.92 495.374 147.84C493.694 144.76 491.314 142.31 488.234 140.49C485.294 138.67 481.864 137.76 477.944 137.76C474.024 137.76 470.524 138.67 467.444 140.49C464.504 142.31 462.124 144.83 460.304 148.05C458.624 151.13 457.784 154.63 457.784 158.55C457.784 162.61 458.624 166.25 460.304 169.47C461.984 172.55 464.364 175 467.444 176.82C470.524 178.64 473.954 179.55 477.734 179.55ZM532.334 210H496.424V182.49L501.674 157.29L495.794 132.51V56.91H532.334V210ZM553.447 210V107.31H590.197V210H553.447ZM571.717 95.34C566.257 95.34 561.707 93.52 558.067 89.88C554.427 86.1 552.607 81.41 552.607 75.81C552.607 70.35 554.427 65.73 558.067 61.95C561.707 58.17 566.257 56.28 571.717 56.28C577.457 56.28 582.077 58.17 585.577 61.95C589.217 65.73 591.037 70.35 591.037 75.81C591.037 81.41 589.217 86.1 585.577 89.88C582.077 93.52 577.457 95.34 571.717 95.34Z" fill="black"/>
<path d="M109.962 150.859C149.9 131.951 173.848 98.7988 163.452 76.8116C153.055 54.8245 112.252 52.3282 72.3138 71.236C32.376 90.1439 8.4278 123.296 18.824 145.283C29.2202 167.27 70.024 169.766 109.962 150.859Z" stroke="url(#paint1_linear_3602_7531)" stroke-width="19" stroke-miterlimit="10" stroke-linecap="round"/>
<defs>
<linearGradient id="paint0_linear_3602_7531" x1="23.1911" y1="191.107" x2="182.734" y2="125.914" gradientUnits="userSpaceOnUse">
<stop offset="0.09" stop-color="#F247D1"/>
<stop offset="0.88" stop-color="#AE18ED"/>
</linearGradient>
<linearGradient id="paint1_linear_3602_7531" x1="13.259" y1="147.918" x2="169.053" y2="74.2535" gradientUnits="userSpaceOnUse">
<stop offset="0.09" stop-color="#F247D1"/>
<stop offset="0.88" stop-color="#AE18ED"/>
</linearGradient>
</defs>
</svg>
