<svg width="14" height="10" viewBox="0 0 14 10" fill="none" xmlns="http://www.w3.org/2000/svg">
<g id="entypo:check" clip-path="url(#clip0_1185_2930)">
<path id="Vector" d="M5.47835 9.3955C5.09944 9.3955 4.74058 9.27597 4.51062 9.06987L1.39841 6.2899C1.30219 6.20405 1.23194 6.10621 1.19169 6.002C1.15143 5.89778 1.14195 5.78922 1.16379 5.68252C1.18563 5.57583 1.23837 5.47309 1.31898 5.38018C1.39959 5.28727 1.5065 5.20601 1.63359 5.14105C1.76064 5.07582 1.90548 5.02818 2.05981 5.00086C2.21415 4.97354 2.37494 4.96708 2.53297 4.98185C2.691 4.99662 2.84317 5.03233 2.98075 5.08693C3.11833 5.14153 3.23862 5.21395 3.33473 5.30004L5.38253 7.12784L10.5312 1.53845C10.702 1.3539 10.974 1.22268 11.2877 1.17355C11.6014 1.12443 11.9311 1.16142 12.2045 1.27641C12.7733 1.51549 12.9484 2.0219 12.593 2.40701L6.50965 9.00804C6.40581 9.12123 6.26267 9.21558 6.09266 9.28289C5.92266 9.35021 5.73092 9.38846 5.53409 9.39433C5.51493 9.3955 5.49751 9.3955 5.47835 9.3955Z" fill="white"/>
</g>
<defs>
<clipPath id="clip0_1185_2930">
<rect width="12.3554" height="8.57289" fill="white" transform="translate(0.787109 0.987305)"/>
</clipPath>
</defs>
</svg>
