<svg width="29" height="24" viewBox="0 0 29 24" fill="none" xmlns="http://www.w3.org/2000/svg">
<path d="M23.5625 0H10.875C8.87297 0 7.25 1.34315 7.25 3C5.24797 3 3.625 4.34315 3.625 6V21C3.625 22.6569 5.24797 24 7.25 24H19.9375C21.9395 24 23.5625 22.6569 23.5625 21C25.5645 21 27.1875 19.6569 27.1875 18V3C27.1875 1.34315 25.5645 0 23.5625 0ZM23.5625 19.5V6C23.5625 4.34315 21.9395 3 19.9375 3H9.0625C9.0625 2.17157 9.87398 1.5 10.875 1.5H23.5625C24.5635 1.5 25.375 2.17157 25.375 3V18C25.375 18.8284 24.5635 19.5 23.5625 19.5ZM5.4375 6C5.4375 5.17157 6.24898 4.5 7.25 4.5H19.9375C20.9385 4.5 21.75 5.17157 21.75 6V21C21.75 21.8284 20.9385 22.5 19.9375 22.5H7.25C6.24898 22.5 5.4375 21.8284 5.4375 21V6Z" fill="#A328F4"/>
</svg>
