<svg width="69" height="69" viewBox="0 0 69 69" fill="none" xmlns="http://www.w3.org/2000/svg">
<path d="M34.5 10.35C36.4054 10.35 37.95 8.80538 37.95 6.9C37.95 6.20951 37.4969 5.5664 37.0013 4.86282C36.1291 3.62489 35.1251 2.19976 36.225 0C32.775 1.725 31.05 4.99462 31.05 6.9C31.05 8.80538 32.5946 10.35 34.5 10.35Z" fill="black"/>
<path fill-rule="evenodd" clip-rule="evenodd" d="M34.5 13.8C36.4054 13.8 37.95 15.3446 37.95 17.25V24.15H44.85V17.25C44.85 15.3446 46.3946 13.8 48.3 13.8C50.2054 13.8 51.75 15.3446 51.75 17.25V24.15H55.2C60.9161 24.15 65.55 28.7839 65.55 34.5V62.1C67.4554 62.1 69 63.6446 69 65.55C69 67.4554 67.4554 69 65.55 69H3.45C1.54462 69 0 67.4554 0 65.55C0 63.6446 1.54462 62.1 3.45 62.1V34.5C3.45 28.7839 8.08385 24.15 13.8 24.15H17.25V17.25C17.25 15.3446 18.7946 13.8 20.7 13.8C22.6054 13.8 24.15 15.3446 24.15 17.25V24.15H31.05V17.25C31.05 15.3446 32.5946 13.8 34.5 13.8ZM10.35 34.5C10.35 32.5946 11.8946 31.05 13.8 31.05H55.2C57.1054 31.05 58.65 32.5946 58.65 34.5V40.7166C55.5798 39.3204 51.836 39.885 49.3105 42.4105C48.7524 42.9686 47.8476 42.9686 47.2895 42.4105C44.0368 39.1578 38.7632 39.1578 35.5105 42.4105C34.9524 42.9686 34.0476 42.9686 33.4895 42.4105C30.2368 39.1578 24.9632 39.1578 21.7105 42.4105C21.1524 42.9686 20.2476 42.9686 19.6895 42.4105C17.164 39.885 13.4202 39.3204 10.35 40.7166V34.5ZM58.65 62.1V49.729L56.2105 47.2895C55.6524 46.7314 54.7476 46.7314 54.1895 47.2895C50.9368 50.5422 45.6632 50.5422 42.4105 47.2895C41.8524 46.7314 40.9476 46.7314 40.3895 47.2895C37.1368 50.5422 31.8632 50.5422 28.6105 47.2895C28.0524 46.7314 27.1476 46.7314 26.5895 47.2895C23.3368 50.5422 18.0632 50.5422 14.8105 47.2895C14.2524 46.7314 13.3476 46.7314 12.7895 47.2895L10.35 49.729V62.1H58.65Z" fill="black"/>
<path d="M24.15 6.9C24.15 8.80538 22.6054 10.35 20.7 10.35C18.7946 10.35 17.25 8.80538 17.25 6.9C17.25 4.99462 18.975 1.725 22.425 0C21.3251 2.19976 22.3291 3.62489 23.2013 4.86282C23.6969 5.5664 24.15 6.20951 24.15 6.9Z" fill="black"/>
<path d="M48.3 10.35C50.2054 10.35 51.75 8.80538 51.75 6.9C51.75 6.20951 51.2969 5.5664 50.8013 4.86282C49.9291 3.62489 48.9251 2.19976 50.025 0C46.575 1.725 44.85 4.99462 44.85 6.9C44.85 8.80538 46.3946 10.35 48.3 10.35Z" fill="black"/>
</svg>
