<svg width="69" height="62" viewBox="0 0 69 62" fill="none" xmlns="http://www.w3.org/2000/svg">
<path fill-rule="evenodd" clip-rule="evenodd" d="M34.5 15.4213C24.9731 15.4213 17.25 23.0928 17.25 32.556C17.25 42.0193 24.9731 49.6908 34.5 49.6908C44.0269 49.6908 51.75 42.0193 51.75 32.556C51.75 23.0928 44.0269 15.4213 34.5 15.4213ZM24.15 32.556C24.15 26.8781 28.7839 22.2752 34.5 22.2752C40.2161 22.2752 44.85 26.8781 44.85 32.556C44.85 38.234 40.2161 42.8369 34.5 42.8369C28.7839 42.8369 24.15 38.234 24.15 32.556Z" fill="black"/>
<path fill-rule="evenodd" clip-rule="evenodd" d="M24.8645 0C23.492 0 22.1757 0.541578 21.2052 1.5056L15.821 6.8539H6.9C3.08923 6.8539 0 9.9225 0 13.7078V54.8312C0 58.6165 3.08924 61.6851 6.9 61.6851H62.1C65.9108 61.6851 69 58.6165 69 54.8312V13.7078C69 9.9225 65.9108 6.8539 62.1 6.8539H53.179L47.7948 1.5056C46.8243 0.54158 45.508 0 44.1355 0H24.8645ZM20.1948 12.2022L25.579 6.8539H43.421L48.8052 12.2022C49.7757 13.1662 51.092 13.7078 52.4645 13.7078H62.1V54.8312H6.9V13.7078H16.5355C17.908 13.7078 19.2243 13.1662 20.1948 12.2022Z" fill="black"/>
</svg>
