<svg width="73" height="73" viewBox="0 0 73 73" fill="none" xmlns="http://www.w3.org/2000/svg">
<g id="cash-coin">
<g id="Vector">
<path fill-rule="evenodd" clip-rule="evenodd" d="M50.1875 68.4375C60.2667 68.4375 68.4375 60.2667 68.4375 50.1875C68.4375 40.1083 60.2667 31.9375 50.1875 31.9375C40.1083 31.9375 31.9375 40.1083 31.9375 50.1875C31.9375 60.2667 40.1083 68.4375 50.1875 68.4375ZM73 50.1875C73 62.7865 62.7865 73 50.1875 73C37.5885 73 27.375 62.7865 27.375 50.1875C27.375 37.5885 37.5885 27.375 50.1875 27.375C62.7865 27.375 73 37.5885 73 50.1875Z" fill="#FF008A"/>
<path d="M43.0586 54.4962C43.2762 57.2153 45.4228 59.3348 49.281 59.5858V61.5938H50.9925V59.5719C54.9812 59.293 57.3164 57.1595 57.3164 54.064C57.3164 51.2472 55.5324 49.7971 52.3414 49.0441L50.9925 48.7234V43.2573C52.704 43.4525 53.7918 44.3868 54.0529 45.6836H57.0553C56.8378 43.0621 54.5896 41.0123 50.9925 40.7892V38.7812H49.281V40.831C45.8724 41.1657 43.5517 43.2155 43.5517 46.1158C43.5517 48.6815 45.2778 50.313 48.1496 50.9823L49.281 51.2612V57.0619C47.5259 56.797 46.3656 55.8348 46.1045 54.4962H43.0586ZM49.2665 48.319C47.584 47.9286 46.6702 47.1337 46.6702 45.9346C46.6702 44.5959 47.6565 43.592 49.281 43.2991V48.319H49.2665ZM51.2391 51.7213C53.2842 52.1954 54.227 52.9624 54.227 54.3149C54.227 55.8627 53.0521 56.9225 50.9925 57.1177V51.6656L51.2391 51.7213Z" fill="#FF008A"/>
<path d="M4.5625 0C2.0427 0 0 2.0427 0 4.5625V41.0625C0 43.5823 2.0427 45.625 4.5625 45.625H23.191C23.4544 44.0548 23.8515 42.5299 24.3702 41.0625H13.6875C13.6875 36.0229 9.6021 31.9375 4.5625 31.9375V13.6875C9.6021 13.6875 13.6875 9.6021 13.6875 4.5625H59.3125C59.3125 9.6021 63.3979 13.6875 68.4375 13.6875V29.783C70.1717 31.3352 71.7069 33.1052 73 35.0501V4.5625C73 2.0427 70.9573 0 68.4375 0H4.5625Z" fill="#FF008A"/>
<path d="M45.6172 23.1923C45.6224 23.0663 45.625 22.9397 45.625 22.8125C45.625 17.7729 41.5396 13.6875 36.5 13.6875C31.4604 13.6875 27.375 17.7729 27.375 22.8125C27.375 25.9356 28.9439 28.6922 31.3366 30.3372C35.199 26.668 40.1313 24.1143 45.6172 23.1923Z" fill="#FF008A"/>
</g>
</g>
</svg>
