<svg width="14" height="10" viewBox="0 0 14 10" fill="none" xmlns="http://www.w3.org/2000/svg">
<g clip-path="url(#clip0_1185_2998)">
<path d="M5.47737 9.3955C5.09847 9.3955 4.7396 9.27597 4.50965 9.06987L1.39743 6.2899C1.30121 6.20405 1.23097 6.10621 1.19071 6.002C1.15045 5.89778 1.14097 5.78922 1.16281 5.68252C1.18466 5.57583 1.23739 5.47309 1.318 5.38018C1.39861 5.28727 1.50552 5.20601 1.63261 5.14105C1.75966 5.07582 1.9045 5.02818 2.05884 5.00086C2.21317 4.97354 2.37396 4.96708 2.53199 4.98185C2.69003 4.99662 2.84219 5.03233 2.97977 5.08693C3.11736 5.14153 3.23765 5.21395 3.33375 5.30004L5.38156 7.12784L10.5303 1.53845C10.701 1.3539 10.9731 1.22268 11.2867 1.17355C11.6004 1.12443 11.9301 1.16142 12.2035 1.27641C12.7723 1.51549 12.9474 2.0219 12.592 2.40701L6.50868 9.00804C6.40483 9.12123 6.26169 9.21558 6.09169 9.28289C5.92168 9.35021 5.72994 9.38846 5.53312 9.39433C5.51395 9.3955 5.49653 9.3955 5.47737 9.3955Z" fill="black"/>
</g>
<defs>
<clipPath id="clip0_1185_2998">
<rect width="12.3554" height="8.57289" fill="white" transform="translate(0.786133 0.987305)"/>
</clipPath>
</defs>
</svg>
