<svg width="66" height="64" viewBox="0 0 66 64" fill="none" xmlns="http://www.w3.org/2000/svg">
<path d="M58.2645 14.8271C54.9077 13.055 50.9932 12.6749 47.3606 13.7682C47.1837 10.0572 45.5915 6.55702 42.9142 3.99353C40.237 1.43004 36.6801 0 32.9813 0C29.2825 0 25.7256 1.43004 23.0483 3.99353C20.3711 6.55702 18.7789 10.0572 18.602 13.7682C14.9793 12.6724 11.0759 13.0159 7.69811 14.7278C5.21062 16.0411 3.16019 18.0569 1.79966 20.5266C0.439138 22.9964 -0.171979 25.8122 0.041675 28.6266C0.255329 31.4411 1.28441 34.1312 3.00201 36.3653C4.71962 38.5993 7.05063 40.2795 9.70759 41.1988C8.01168 43.6226 7.09229 46.5084 7.07221 49.4709C7.08684 50.3028 7.16392 51.1324 7.3028 51.9526C7.85756 55.3129 9.58341 58.3657 12.1721 60.5659C14.7609 62.7661 18.0439 63.9704 21.435 63.9638C22.137 64.0121 22.8414 64.0121 23.5433 63.9638C27.3087 63.3679 30.6914 61.3127 32.9648 58.2394C35.2619 61.263 38.6414 63.2688 42.3863 63.8314C43.0882 63.8797 43.7927 63.8797 44.4946 63.8314C47.1239 63.8284 49.7019 63.1004 51.9476 61.727C54.1934 60.3535 56.0207 58.3872 57.2304 56.0423C58.4401 53.6975 58.9858 51.0641 58.808 48.4292C58.6302 45.7943 57.7357 43.2589 56.222 41.0995C58.892 40.1961 61.2385 38.524 62.9694 36.2913C64.7004 34.0585 65.7394 31.3637 65.957 28.5423C66.1747 25.7209 65.5615 22.8975 64.1937 20.4236C62.8259 17.9496 60.764 15.9343 58.2645 14.6286V14.8271ZM27.4964 8.40788C28.9681 6.9922 30.9271 6.20193 32.9648 6.20193C35.0025 6.20193 36.9616 6.9922 38.4332 8.40788C39.5568 9.53815 40.3198 10.9789 40.6249 12.5465C40.93 14.1141 40.7633 15.7374 40.1462 17.2095L39.2897 19.1617L37.1155 21.0808C35.7788 20.62 34.3779 20.3743 32.9648 20.3529C31.1384 20.3546 29.3323 20.7378 27.6611 21.4779L25.8163 17.2095C25.177 15.7439 24.9954 14.118 25.2953 12.5466C25.5953 10.9751 26.3628 9.53201 27.4964 8.40788ZM7.40163 31.0405C6.66622 29.4151 6.50502 27.5863 6.94468 25.8563C7.38434 24.1264 8.39853 22.599 9.81961 21.5265C11.2407 20.454 12.9836 19.9007 14.7602 19.9581C16.5368 20.0154 18.2407 20.68 19.5903 21.8419L21.2044 23.2647L22.3574 25.9118C20.7072 28.1296 19.8067 30.8196 19.7879 33.5884C19.7488 34.0839 19.7488 34.5818 19.7879 35.0773H17.9761L15.2089 35.3421C13.6262 35.5098 12.0303 35.1877 10.6349 34.4189C9.23951 33.6501 8.11137 32.4714 7.40163 31.0405ZM29.1435 51.1584C28.7469 52.9248 27.7565 54.5 26.3389 55.6186C24.9213 56.7373 23.1632 57.3311 21.3607 57.3C19.5583 57.2689 17.8215 56.6149 16.443 55.448C15.0645 54.2811 14.1284 52.6728 13.7924 50.8937C13.7608 50.431 13.7608 49.9667 13.7924 49.504C13.8044 48.1591 14.1664 46.8407 14.8425 45.6798C15.5186 44.5189 16.4854 43.5558 17.6467 42.8863L19.3267 41.6951L22.3245 41.3642C24.2139 44.0044 27.0047 45.8536 30.1647 46.5591L29.1435 51.1584ZM32.9648 40.2061C31.6617 40.2061 30.3879 39.818 29.3045 39.0908C28.221 38.3636 27.3765 37.3301 26.8779 36.1209C26.3792 34.9116 26.2487 33.581 26.503 32.2973C26.7572 31.0136 27.3847 29.8344 28.3061 28.9089C29.2275 27.9834 30.4014 27.3531 31.6795 27.0978C32.9575 26.8424 34.2822 26.9735 35.4861 27.4744C36.69 27.9752 37.719 28.8235 38.4429 29.9117C39.1669 31 39.5533 32.2795 39.5533 33.5884C39.5533 35.3435 38.8591 37.0267 37.6236 38.2678C36.388 39.5089 34.7122 40.2061 32.9648 40.2061ZM52.1372 50.8606C51.7974 52.8796 50.6816 54.6837 49.0303 55.8843C47.379 57.085 45.3243 57.5861 43.3087 57.2798C41.7205 57.055 40.2385 56.3484 39.0611 55.2544C37.8836 54.1605 37.0669 52.7314 36.7202 51.1584L36.259 49.1731L36.9508 46.129C39.9898 45.1348 42.5654 43.0651 44.1981 40.3054L45.8452 41.298H46.1417L48.3159 42.5885C49.7285 43.3987 50.8552 44.6303 51.5399 46.1125C52.2246 47.5946 52.4333 49.254 52.1372 50.8606ZM58.528 31.0074C57.8801 32.3227 56.8806 33.4308 55.6414 34.208C54.4023 34.9852 52.9722 35.4008 51.5113 35.4082H50.7207L48.6124 35.0773L46.1417 33.7207C46.1371 30.5035 44.966 27.3982 42.8475 24.9853L44.264 23.761L46.3394 21.8419C47.6928 20.6333 49.4225 19.9349 51.2321 19.8663C53.0418 19.7976 54.819 20.363 56.2593 21.4657C57.6996 22.5683 58.7135 24.1396 59.1274 25.9105C59.5413 27.6813 59.3294 29.5417 58.528 31.1729V31.0074Z" fill="black"/>
</svg>
