<svg width="65" height="60" viewBox="0 0 65 60" fill="none" xmlns="http://www.w3.org/2000/svg">
<path fill-rule="evenodd" clip-rule="evenodd" d="M36.4904 1.34936C34.1432 -0.449784 30.8565 -0.449789 28.5093 1.34936L1.26233 22.2344C-1.18282 24.1086 0.162134 27.9712 3.25961 27.9712H6.5001V53.5942C6.5001 57.132 9.41022 60 13 60H51.9996C55.5894 60 58.4996 57.132 58.4996 53.5942V27.9712H61.7401C64.8343 27.9712 66.1851 24.1106 63.7373 22.2344L36.4904 1.34936ZM42.2497 53.5942H51.9996V24.8003C51.9996 23.7849 52.4744 22.8788 53.217 22.2857L32.4998 6.40576L11.7826 22.2857C12.5253 22.8788 13 23.785 13 24.8003V53.5942H22.7499V37.5798C22.7499 32.2731 27.1151 27.9712 32.4998 27.9712C37.8846 27.9712 42.2497 32.2731 42.2497 37.5798V53.5942ZM29.2499 53.5942H35.7498V37.5798C35.7498 35.8109 34.2947 34.377 32.4998 34.377C30.7049 34.377 29.2499 35.8109 29.2499 37.5798V53.5942Z" fill="black"/>
</svg>
