<svg width="73" height="73" viewBox="0 0 73 73" fill="none" xmlns="http://www.w3.org/2000/svg">
<g id="input-search">
<path id="Vector (Stroke)" fill-rule="evenodd" clip-rule="evenodd" d="M38.7812 45.625C38.7812 46.8849 37.7599 47.9062 36.5 47.9062H24.3333C14.6741 47.9062 6.84375 40.0759 6.84375 30.4167C6.84375 20.7574 14.6741 12.9271 24.3333 12.9271H48.6667C58.3259 12.9271 66.1562 20.7574 66.1562 30.4167V36.5C66.1562 37.7599 65.1349 38.7812 63.875 38.7812C62.6151 38.7812 61.5938 37.7599 61.5938 36.5V30.4167C61.5938 23.2772 55.8061 17.4896 48.6667 17.4896H24.3333C17.1939 17.4896 11.4062 23.2772 11.4062 30.4167C11.4062 37.5561 17.1939 43.3438 24.3333 43.3438H36.5C37.7599 43.3438 38.7812 44.3651 38.7812 45.625Z" fill="#EE5300"/>
<path id="Vector (Stroke)_2" fill-rule="evenodd" clip-rule="evenodd" d="M54.75 44.8646C50.9703 44.8646 47.9062 47.9286 47.9062 51.7083C47.9062 55.488 50.9703 58.5521 54.75 58.5521C56.6437 58.5521 58.3542 57.7859 59.5957 56.5411C60.8329 55.3007 61.5937 53.5955 61.5937 51.7083C61.5937 47.9286 58.5297 44.8646 54.75 44.8646ZM43.3438 51.7083C43.3438 45.4088 48.4505 40.3021 54.75 40.3021C61.0495 40.3021 66.1562 45.4088 66.1562 51.7083C66.1562 54.0288 65.4617 56.1894 64.2713 57.9906L68.5322 62.2643C69.4217 63.1565 69.4195 64.6009 68.5273 65.4905C67.6351 66.38 66.1907 66.3779 65.3012 65.4856L61.0477 61.2194C59.2434 62.416 57.0771 63.1146 54.75 63.1146C48.4505 63.1146 43.3438 58.0078 43.3438 51.7083Z" fill="#EE5300"/>
</g>
</svg>
