<svg width="23" height="24" viewBox="0 0 23 24" fill="none" xmlns="http://www.w3.org/2000/svg">
<path d="M20.125 1.5C20.9189 1.5 21.5625 2.17157 21.5625 3V15C21.5625 15.8284 20.9189 16.5 20.125 16.5H6.34543C5.58293 16.5 4.85167 16.8161 4.3125 17.3787L1.4375 20.3787V3C1.4375 2.17157 2.08109 1.5 2.875 1.5H20.125ZM2.875 0C1.28718 0 0 1.34315 0 3V22.1893C0 22.8575 0.774195 23.1921 1.22698 22.7197L5.32897 18.4393C5.59855 18.158 5.96418 18 6.34543 18H20.125C21.7128 18 23 16.6569 23 15V3C23 1.34315 21.7128 0 20.125 0H2.875Z" fill="#A328F4"/>
<path d="M7.1875 9C7.1875 9.82843 6.54391 10.5 5.75 10.5C4.95609 10.5 4.3125 9.82843 4.3125 9C4.3125 8.17157 4.95609 7.5 5.75 7.5C6.54391 7.5 7.1875 8.17157 7.1875 9Z" fill="#A328F4"/>
<path d="M12.9375 9C12.9375 9.82843 12.2939 10.5 11.5 10.5C10.7061 10.5 10.0625 9.82843 10.0625 9C10.0625 8.17157 10.7061 7.5 11.5 7.5C12.2939 7.5 12.9375 8.17157 12.9375 9Z" fill="#A328F4"/>
<path d="M18.6875 9C18.6875 9.82843 18.0439 10.5 17.25 10.5C16.4561 10.5 15.8125 9.82843 15.8125 9C15.8125 8.17157 16.4561 7.5 17.25 7.5C18.0439 7.5 18.6875 8.17157 18.6875 9Z" fill="#A328F4"/>
</svg>
