<svg width="84" height="84" viewBox="0 0 84 84" fill="none" xmlns="http://www.w3.org/2000/svg">
<rect x="1" y="1" width="82" height="82" fill="white" fill-opacity="0.01"/>
<path d="M1 1H83M1 1V83M1 1L83 83M83 1V83M83 1L1 83M83 83H1" stroke="#DADEE4" stroke-width="0.13"/>
<circle cx="41.9997" cy="42.0006" r="34.1667" stroke="#DADEE4" stroke-width="0.13"/>
<rect x="7.83301" y="14.666" width="68.3333" height="54.6667" rx="1" stroke="#DADEE4" stroke-width="0.13"/>
<rect x="14.667" y="7.83398" width="54.6667" height="68.3333" rx="1" stroke="#DADEE4" stroke-width="0.13"/>
<rect x="11.25" y="11.25" width="61.5" height="61.5" rx="1" stroke="#DADEE4" stroke-width="0.13"/>
<circle cx="41.9997" cy="42.0007" r="13.6667" stroke="#DADEE4" stroke-width="0.13"/>
<path fill-rule="evenodd" clip-rule="evenodd" d="M64.793 11.9599C68.9581 11.2657 72.7497 14.4777 72.7497 18.7003V59.0837C72.7497 66.6316 66.6309 72.7505 59.083 72.7505C51.5351 72.7505 45.4163 66.6317 45.4163 59.0838C45.4163 51.5359 51.5351 45.4171 59.083 45.4171C61.5723 45.4171 63.9062 46.0827 65.9163 47.2455V32.3672L31.7497 38.0617V62.5003C31.7497 62.7027 31.7321 62.9009 31.6984 63.0936C31.7323 63.4608 31.7497 63.8327 31.7497 64.2088C31.7497 70.8132 26.3957 76.1671 19.7913 76.1671C13.1869 76.1671 7.83301 70.8132 7.83301 64.2088C7.83301 57.6044 13.1869 52.2505 19.7913 52.2505C21.6254 52.2505 23.363 52.6634 24.9163 53.4013V24.3947C24.9163 21.0543 27.3313 18.2035 30.6263 17.6543L64.793 11.9599ZM31.7497 31.1341L65.9163 25.4397V18.7003L31.7497 24.3947V31.1341ZM52.2497 59.0838C52.2497 55.3099 55.3091 52.2505 59.083 52.2505C62.857 52.2505 65.9163 55.3099 65.9163 59.0838C65.9163 62.8577 62.857 65.9171 59.083 65.9171C55.3091 65.9171 52.2497 62.8577 52.2497 59.0838ZM14.6663 64.2088C14.6663 61.3783 16.9609 59.0838 19.7913 59.0838C22.6218 59.0838 24.9163 61.3783 24.9163 64.2088C24.9163 67.0393 22.6218 69.3338 19.7913 69.3338C16.9609 69.3338 14.6663 67.0393 14.6663 64.2088Z" fill="black"/>
</svg>
