<svg width="60" height="77" viewBox="0 0 60 77" fill="none" xmlns="http://www.w3.org/2000/svg">
<path fill-rule="evenodd" clip-rule="evenodd" d="M0 11.5163C0 5.156 4.24151 0 9.47368 0H41.0526C46.2848 0 50.5263 5.15601 50.5263 11.5163H53.6842C57.1723 11.5163 60 14.9536 60 19.1938V24.4914C60 34.3523 53.8532 42.6087 45.7816 43.5899L28.4211 45.7003L28.4211 46.065C31.9092 46.065 34.7368 49.5024 34.7368 53.7425V69.0975C34.7368 73.3377 31.9092 76.7751 28.4211 76.7751H22.1053C18.6171 76.7751 15.7895 73.3377 15.7895 69.0975V53.7425C15.7895 49.5024 18.6171 46.065 22.1053 46.065V45.7003C22.1053 41.756 24.564 38.4534 27.7926 38.0609L45.1532 35.9505C49.9962 35.3618 53.6842 30.4079 53.6842 24.4914V19.1938H50.5263C50.5263 25.554 46.2848 30.71 41.0526 30.71H9.47368C4.24151 30.71 0 25.554 0 19.1938V11.5163ZM28.4211 53.7425H22.1053V69.0975H28.4211V53.7425ZM9.47368 7.67751C7.72963 7.67751 6.31579 9.39617 6.31579 11.5163V19.1938C6.31579 21.3138 7.72963 23.0325 9.47368 23.0325H41.0526C42.7967 23.0325 44.2105 21.3138 44.2105 19.1938V11.5163C44.2105 9.39617 42.7967 7.67751 41.0526 7.67751H9.47368Z" fill="black"/>
</svg>
