<svg width="24" height="24" viewBox="0 0 24 24" fill="none" xmlns="http://www.w3.org/2000/svg">
<path d="M6 16.1719C6.22172 18.6725 8.26942 20.4459 11.3866 20.6756V22.5H12.9517V20.6756C16.3558 20.4077 18.4688 18.5194 18.4688 15.7254C18.4688 13.3396 17.0471 11.9617 14.0343 11.1835L12.9517 10.9028V5.19988C14.6342 5.36574 15.7689 6.27157 16.0559 7.62394H18.2601C18.0123 5.22539 15.9515 3.50304 12.9517 3.31166V1.5H11.3866V3.34994C8.4781 3.69441 6.48258 5.55711 6.48258 8.08323C6.48258 10.2649 7.93031 11.8086 10.4736 12.4593L11.3866 12.7017V18.7491C9.66498 18.4939 8.4781 17.5498 8.19116 16.1719H6ZM11.0866 10.418C9.52151 10.0225 8.68678 9.18044 8.68678 7.99392C8.68678 6.57776 9.74323 5.53159 11.3866 5.25091V10.4945L11.0866 10.418ZM13.4734 13.2248C15.4037 13.7096 16.2515 14.5134 16.2515 15.8785C16.2515 17.5243 15.0125 18.6215 12.9517 18.7874V13.0972L13.4734 13.2248Z" fill="#A328F4"/>
</svg>
