<svg width="73" height="73" viewBox="0 0 73 73" fill="none" xmlns="http://www.w3.org/2000/svg">
<g id="people">
<g id="Vector">
<path d="M68.4375 63.875C68.4375 63.875 73 63.875 73 59.3125C73 54.75 68.4375 41.0625 50.1875 41.0625C31.9375 41.0625 27.375 54.75 27.375 59.3125C27.375 63.875 31.9375 63.875 31.9375 63.875H68.4375ZM32.0395 59.3125C32.0236 59.3107 32.0015 59.3078 31.9747 59.3033C31.962 59.3012 31.9496 59.299 31.9375 59.2966C31.9442 58.0919 32.6988 54.599 35.4016 51.4458C37.9296 48.4964 42.3523 45.625 50.1875 45.625C58.0227 45.625 62.4454 48.4964 64.9734 51.4458C67.6761 54.599 68.4308 58.0919 68.4375 59.2966C68.4254 59.299 68.413 59.3012 68.4003 59.3033C68.3735 59.3078 68.3514 59.3107 68.3355 59.3125H32.0395Z" fill="#A328F4"/>
<path d="M50.1875 31.9375C55.2271 31.9375 59.3125 27.8521 59.3125 22.8125C59.3125 17.7729 55.2271 13.6875 50.1875 13.6875C45.1479 13.6875 41.0625 17.7729 41.0625 22.8125C41.0625 27.8521 45.1479 31.9375 50.1875 31.9375ZM63.875 22.8125C63.875 30.3719 57.7469 36.5 50.1875 36.5C42.6281 36.5 36.5 30.3719 36.5 22.8125C36.5 15.2531 42.6281 9.125 50.1875 9.125C57.7469 9.125 63.875 15.2531 63.875 22.8125Z" fill="#A328F4"/>
<path d="M31.6452 42.3398C29.9671 41.8031 28.1029 41.4129 26.0349 41.2133C25.0114 41.1146 23.938 41.0625 22.8125 41.0625C4.5625 41.0625 0 54.75 0 59.3125C0 62.3542 1.52083 63.875 4.5625 63.875H23.7996C23.1573 62.5789 22.8125 61.0423 22.8125 59.3125C22.8125 54.7031 24.5337 49.996 27.7848 46.0639C28.8955 44.7205 30.1849 43.4675 31.6452 42.3398ZM22.4477 45.6271C19.7217 49.7934 18.25 54.5432 18.25 59.3125H4.5625C4.5625 58.1229 5.31187 54.613 8.02661 51.4458C10.5151 48.5425 14.8395 45.7148 22.4477 45.6271Z" fill="#A328F4"/>
<path d="M6.84375 25.0938C6.84375 17.5344 12.9719 11.4062 20.5312 11.4062C28.0906 11.4062 34.2188 17.5344 34.2188 25.0938C34.2188 32.6531 28.0906 38.7812 20.5312 38.7812C12.9719 38.7812 6.84375 32.6531 6.84375 25.0938ZM20.5312 15.9688C15.4917 15.9688 11.4062 20.0542 11.4062 25.0938C11.4062 30.1333 15.4917 34.2188 20.5312 34.2188C25.5708 34.2188 29.6562 30.1333 29.6562 25.0938C29.6562 20.0542 25.5708 15.9688 20.5312 15.9688Z" fill="#A328F4"/>
</g>
</g>
</svg>
