<svg width="18" height="18" viewBox="0 0 18 18" fill="none" xmlns="http://www.w3.org/2000/svg">
<g id="profile-circle">
<path id="Vector" d="M9 1.5C4.85786 1.5 1.5 4.85786 1.5 9C1.5 13.1421 4.85786 16.5 9 16.5C13.1421 16.5 16.5 13.1421 16.5 9C16.5 4.85786 13.1421 1.5 9 1.5Z" stroke="#A328F4" stroke-linecap="round" stroke-linejoin="round"/>
<path id="Vector_2" d="M3.20312 13.7593C3.20312 13.7593 4.8749 11.625 8.9999 11.625C13.1249 11.625 14.7967 13.7593 14.7967 13.7593" stroke="#A328F4" stroke-linecap="round" stroke-linejoin="round"/>
<path id="Vector_3" d="M9 9C10.2426 9 11.25 7.99264 11.25 6.75C11.25 5.50736 10.2426 4.5 9 4.5C7.75736 4.5 6.75 5.50736 6.75 6.75C6.75 7.99264 7.75736 9 9 9Z" stroke="#A328F4" stroke-linecap="round" stroke-linejoin="round"/>
</g>
</svg>
