<svg width="24" height="24" viewBox="0 0 24 24" fill="none" xmlns="http://www.w3.org/2000/svg">
<path fill-rule="evenodd" clip-rule="evenodd" d="M7.5 6C7.5 3.51472 9.51472 1.5 12 1.5C14.4853 1.5 16.5 3.51472 16.5 6C16.5 8.48528 14.4853 10.5 12 10.5C9.51472 10.5 7.5 8.48528 7.5 6Z" fill="#80858B"/>
<path fill-rule="evenodd" clip-rule="evenodd" d="M3.75125 20.1053C3.82859 15.6156 7.49199 12 12 12C16.5081 12 20.1716 15.6157 20.2488 20.1056C20.2539 20.4034 20.0823 20.676 19.8117 20.8002C17.4327 21.8918 14.7865 22.5 12.0003 22.5C9.21386 22.5 6.56743 21.8917 4.18832 20.7999C3.91765 20.6757 3.74612 20.4031 3.75125 20.1053Z" fill="#80858B"/>
</svg>
