<svg width="61" height="62" viewBox="0 0 61 62" fill="none" xmlns="http://www.w3.org/2000/svg">
<path fill-rule="evenodd" clip-rule="evenodd" d="M10.7324 9.32033C8.61544 6.62701 9.34135 2.9079 12.3538 1.01347L29.9668 23.4216L47.4945 0.94663C50.5141 2.82959 51.2542 6.54591 49.1475 9.24726L34.046 28.6113L41.4641 38.049C43.0599 37.4409 44.8155 37.1029 46.6592 37.0994C54.023 37.0854 60.0026 42.4128 60.0152 48.9985C60.0277 55.5841 54.0683 60.9342 46.7045 60.9482C39.3407 60.9622 33.3611 55.6349 33.3485 49.0492C33.3433 46.2734 34.3989 43.7172 36.1733 41.6875L29.9866 33.8165L23.8295 41.7114C25.6115 43.7343 26.6766 46.2863 26.6819 49.0618C26.6944 55.6475 20.735 60.9976 13.3713 61.0116C6.00747 61.0256 0.0277932 55.6983 0.0152673 49.1126C0.00274135 42.5269 5.96211 37.1768 13.3259 37.1628C15.1697 37.1593 16.9268 37.4907 18.5252 38.0928L25.9075 28.6268L10.7324 9.32033ZM13.3372 43.125C9.65534 43.132 6.67566 45.807 6.68192 49.0999C6.68818 52.3927 9.67802 55.0564 13.3599 55.0494C17.0418 55.0424 20.0215 52.3674 20.0152 49.0745C20.009 45.7817 17.0191 43.118 13.3372 43.125ZM46.6705 43.0616C42.9886 43.0686 40.0089 45.7436 40.0152 49.0365C40.0215 52.3293 43.0113 54.993 46.6932 54.986C50.3751 54.979 53.3548 52.304 53.3485 49.0111C53.3422 45.7183 50.3524 43.0546 46.6705 43.0616Z" fill="black"/>
</svg>
