<svg width="30" height="34" viewBox="0 0 30 34" fill="none" xmlns="http://www.w3.org/2000/svg">
<path fill-rule="evenodd" clip-rule="evenodd" d="M23 1.33333C23 0.596954 22.403 0 21.6667 0C20.9303 0 20.3333 0.596954 20.3333 1.33333V2.66667H4.33333C3.59695 2.66667 3 3.26362 3 4C3 4.73638 3.59695 5.33333 4.33333 5.33333H20.3333V6.66667C20.3333 7.40305 20.9303 8 21.6667 8C22.403 8 23 7.40305 23 6.66667V5.33333H25.6667C26.403 5.33333 27 4.73638 27 4C27 3.26362 26.403 2.66667 25.6667 2.66667H23V1.33333ZM4.33333 10.6667C3.59695 10.6667 3 11.2636 3 12C3 12.7364 3.59695 13.3333 4.33333 13.3333H7V14.6667C7 15.403 7.59695 16 8.33333 16C9.06971 16 9.66667 15.403 9.66667 14.6667V13.3333H25.6667C26.403 13.3333 27 12.7364 27 12C27 11.2636 26.403 10.6667 25.6667 10.6667H9.66667V9.33333C9.66667 8.59695 9.06971 8 8.33333 8C7.59695 8 7 8.59695 7 9.33333V10.6667H4.33333ZM3 20C3 19.2636 3.59695 18.6667 4.33333 18.6667H20.3333V17.3333C20.3333 16.597 20.9303 16 21.6667 16C22.403 16 23 16.597 23 17.3333V18.6667H25.6667C26.403 18.6667 27 19.2636 27 20C27 20.7364 26.403 21.3333 25.6667 21.3333H23V22.6667C23 23.403 22.403 24 21.6667 24C20.9303 24 20.3333 23.403 20.3333 22.6667V21.3333H4.33333C3.59695 21.3333 3 20.7364 3 20Z" fill="#A328F4"/>
</svg>
