<svg width="104" height="104" viewBox="0 0 104 104" fill="none" xmlns="http://www.w3.org/2000/svg">
<path d="M46.4816 15.2672C45.8792 15.2649 45.2853 15.4086 44.7506 15.6862C44.216 15.9638 43.7567 16.3669 43.4121 16.861C43.0674 17.3551 42.8478 17.9253 42.772 18.5229C42.6961 19.1205 42.7664 19.7276 42.9767 20.2921L48.708 35.6427L46.4361 38.9654L42.4618 38.2614L35.5287 23.4218C35.2736 22.8761 34.8899 22.4004 34.4106 22.0356C33.9312 21.6707 33.3706 21.4276 32.7766 21.327C32.1827 21.2264 31.5732 21.2714 31.0005 21.4581C30.4278 21.6447 29.9088 21.9676 29.4883 22.3988C26.3182 25.6608 24.1578 29.7691 23.2669 34.2297C22.3761 38.6902 22.7926 43.3132 24.4665 47.5426C26.1404 51.7721 29.0004 55.428 32.7026 58.0708C36.4047 60.7135 40.7915 62.2307 45.3353 62.4397L53.6703 85.1303C53.6883 85.1837 53.7095 85.2361 53.7336 85.287C54.8954 87.9961 57.0807 90.1364 59.8133 91.2416C62.546 92.3468 65.6047 92.3275 68.3231 91.1878C71.0416 90.0481 73.1995 87.8803 74.327 85.1568C75.4544 82.4332 75.46 79.3745 74.3425 76.6468L74.2751 76.4918L63.9363 54.6413C66.9769 51.2548 68.9736 47.0615 69.686 42.5664C70.3984 38.0713 69.7961 33.4661 67.9517 29.3054C66.1072 25.1447 63.0992 21.6059 59.29 19.1153C55.4808 16.6246 51.0328 15.2883 46.4816 15.2672ZM61.3227 44.9731C60.3764 47.3055 58.8927 49.3814 56.9923 51.0318C56.3791 51.5648 55.9569 52.2836 55.7902 53.0788C55.6234 53.8739 55.7212 54.7018 56.0687 55.4362L67.5 79.5917C67.8826 80.5042 67.887 81.5314 67.5122 82.4472C67.1375 83.3631 66.4143 84.0925 65.5017 84.4751C64.5891 84.8577 63.5619 84.8621 62.6461 84.4874C61.7303 84.1126 61.0008 83.3894 60.6182 82.4768L51.407 57.3954C51.1269 56.6327 50.6051 55.9826 49.9211 55.5441C49.2372 55.1056 48.4286 54.9028 47.6186 54.9665C45.1122 55.1602 42.5954 54.76 40.2726 53.7983C36.3142 52.1732 33.162 49.0443 31.5075 45.0981C29.8531 41.1518 29.8315 36.7104 31.4474 32.7483L31.5521 32.4926L36.5348 43.157C36.7875 43.6971 37.1662 44.1687 37.639 44.532C38.1119 44.8953 38.6651 45.1398 39.252 45.2448L47.4867 46.7163C48.1927 46.8423 48.92 46.7619 49.5814 46.4846C50.2427 46.2073 50.81 45.745 51.215 45.1532L55.9383 38.2492C56.2748 37.7569 56.4883 37.191 56.5606 36.5991C56.633 36.0072 56.5622 35.4066 56.3542 34.8477L52.2447 23.8196C52.3309 23.8549 52.4142 23.889 52.5004 23.9242C56.458 25.5499 59.6094 28.6788 61.2632 32.6247C62.9171 36.5707 62.9385 41.0115 61.3227 44.9731Z" fill="black"/>
</svg>
