<svg width="24" height="24" viewBox="0 0 24 24" fill="none" xmlns="http://www.w3.org/2000/svg">
<path fill-rule="evenodd" clip-rule="evenodd" d="M16.3053 3.75C14.9937 3.75 13.7335 4.28909 12.8047 5.25232L12.5395 5.52714C12.3982 5.67365 12.2034 5.75641 11.9998 5.75642C11.7962 5.75642 11.6013 5.67365 11.46 5.52714L11.1949 5.25229C9.26309 3.24988 6.12529 3.24988 4.19352 5.2523C2.26883 7.24739 2.26883 10.477 4.19352 12.4721L11.4886 20.034C11.7573 20.3126 12.2054 20.3232 12.4874 20.0573C14.1657 18.4409 15.7608 16.747 17.368 15.0402C18.1737 14.1847 18.9823 13.3259 19.806 12.4721C20.7292 11.5156 21.25 10.2178 21.25 8.86222C21.25 7.50674 20.7294 6.20909 19.8061 5.2524C18.8773 4.28925 17.617 3.75 16.3053 3.75ZM11.9999 3.94228C13.1757 2.85872 14.7069 2.25 16.3053 2.25C18.0313 2.25 19.679 2.95977 20.8854 4.21074C22.0832 5.45181 22.75 7.1248 22.75 8.86222C22.75 10.5997 22.0831 12.2728 20.8854 13.5137C20.089 14.3393 19.2938 15.1836 18.4945 16.0323C16.871 17.7562 15.2301 19.4985 13.5256 21.14L13.5216 21.1438C12.6426 21.9779 11.2505 21.9476 10.409 21.0754L3.11399 13.5136C0.62867 10.9374 0.62867 6.78707 3.11399 4.21085C5.54605 1.68984 9.46239 1.60032 11.9999 3.94228Z" fill="#A328F4"/>
</svg>
