<svg width="24" height="24" viewBox="0 0 24 24" fill="none" xmlns="http://www.w3.org/2000/svg">
<path fill-rule="evenodd" clip-rule="evenodd" d="M6.25 12C6.25 11.5858 6.58579 11.25 7 11.25L17 11.25C17.4142 11.25 17.75 11.5858 17.75 12C17.75 12.4142 17.4142 12.75 17 12.75L7 12.75C6.58579 12.75 6.25 12.4142 6.25 12Z" fill="#A328F4"/>
<path fill-rule="evenodd" clip-rule="evenodd" d="M6.25 8C6.25 7.58579 6.58579 7.25 7 7.25L13 7.25C13.4142 7.25 13.75 7.58579 13.75 8C13.75 8.41421 13.4142 8.75 13 8.75L7 8.75C6.58579 8.75 6.25 8.41421 6.25 8Z" fill="#A328F4"/>
<path fill-rule="evenodd" clip-rule="evenodd" d="M5 3.75C4.30964 3.75 3.75 4.30964 3.75 5V19.8619L5.81386 17.2821C6.33573 16.6297 7.12584 16.25 7.96125 16.25H19C19.6904 16.25 20.25 15.6904 20.25 15V5C20.25 4.30964 19.6904 3.75 19 3.75H5ZM2.25 5C2.25 3.48122 3.48122 2.25 5 2.25H19C20.5188 2.25 21.75 3.48122 21.75 5V15C21.75 16.5188 20.5188 17.75 19 17.75H7.96125C7.58152 17.75 7.22238 17.9226 6.98516 18.2191L4.65417 21.1329C3.85698 22.1294 2.25 21.5657 2.25 20.2895V5Z" fill="#A328F4"/>
</svg>
