<svg width="18" height="18" viewBox="0 0 18 18" fill="none" xmlns="http://www.w3.org/2000/svg">
<g id="Star_duotone">
<path id="Star 1" d="M7.60826 4.97077C8.19821 3.50002 8.49319 2.76465 9.00044 2.76465C9.50768 2.76465 9.80266 3.50002 10.3926 4.97077L10.4201 5.03926C10.7534 5.87016 10.92 6.28561 11.2597 6.53813C11.5993 6.79064 12.0451 6.83057 12.9368 6.91043L13.098 6.92487C14.5574 7.05556 15.2871 7.12091 15.4432 7.58515C15.5993 8.04939 15.0574 8.5424 13.9737 9.52841L13.612 9.85749C13.0633 10.3566 12.789 10.6062 12.6612 10.9333C12.6373 10.9943 12.6175 11.0568 12.6018 11.1204C12.5178 11.4614 12.5981 11.8235 12.7587 12.5476L12.8088 12.773C13.104 14.1037 13.2516 14.7691 12.9939 15.0561C12.8976 15.1633 12.7724 15.2406 12.6333 15.2785C12.2612 15.38 11.7328 14.9495 10.6761 14.0884C9.98221 13.523 9.63527 13.2403 9.23694 13.1767C9.08026 13.1517 8.92061 13.1517 8.76393 13.1767C8.3656 13.2403 8.01866 13.523 7.32478 14.0884C6.26807 14.9495 5.73971 15.38 5.36756 15.2785C5.2285 15.2406 5.10331 15.1633 5.007 15.0561C4.74924 14.7691 4.89686 14.1037 5.19212 12.773L5.24213 12.5476C5.40278 11.8235 5.48311 11.4614 5.39907 11.1204C5.38339 11.0568 5.36357 10.9943 5.33972 10.9333C5.21186 10.6062 4.93755 10.3566 4.38892 9.85749L4.02721 9.52841C2.94342 8.5424 2.40153 8.04939 2.55767 7.58515C2.7138 7.12091 3.44348 7.05556 4.90284 6.92487L5.06404 6.91043C5.95573 6.83057 6.40157 6.79064 6.74121 6.53813C7.08085 6.28561 7.2475 5.87016 7.58079 5.03926L7.60826 4.97077Z" fill="#FFC500" stroke="#FFC500" stroke-width="0.862829"/>
</g>
</svg>
